<?xml version="1.0"?>
<svg width="40000" height="9200" xmlns="http://www.w3.org/2000/svg" xmlns:svg="http://www.w3.org/2000/svg">
 <g class="layer">
  <title>Layer 1</title>
  <path d="m15550,3666c-63,-42 -137,-53 -216,-53c-81,0 -144,17 -200,53l416,0l0,0zm-5978,810c0,140 16,373 113,486c62,73 127,102 223,102c70,0 111,-28 155,-82c87,-106 100,-414 100,-541c0,-136 -14,-392 -107,-504c-48,-58 -92,-92 -168,-92c-90,0 -147,31 -204,99c-97,113 -112,393 -112,532zm-6887,-820c0,294 31,778 234,1015c156,182 357,244 594,244c231,0 444,-54 597,-234c201,-237 226,-815 226,-1106c0,-287 -34,-715 -235,-943c-160,-182 -365,-243 -605,-243c-233,0 -422,68 -576,245c-204,237 -235,727 -235,1022zm-2685,-5c0,-951 245,-1867 937,-2553c691,-686 1607,-930 2564,-930c955,0 1895,229 2591,914c687,676 930,1581 930,2522c0,644 -94,1320 -400,1897c-273,516 -672,920 -1184,1205c-567,316 -1221,423 -1864,423c-627,0 -1284,-85 -1854,-361c-536,-259 -948,-666 -1250,-1174c-349,-588 -470,-1269 -470,-1943zm15182,1640c50,20 105,29 168,29c61,0 119,-9 174,-29l-342,0zm2980,-1504l0,-1891l2388,0l0,177c26,-15 52,-30 79,-43c326,-170 691,-233 1056,-233c526,0 1013,153 1380,537c394,412 503,996 503,1545l0,3149l-2510,0l0,-2781c0,-61 -7,-243 -43,-293c-23,-26 -73,-27 -104,-27c-69,0 -113,18 -156,71c-79,97 -91,432 -91,548l0,2482l-2502,0l0,-1422l-60,104c-260,447 -607,841 -1070,1087c-505,268 -1153,331 -1717,331c-510,0 -1075,-58 -1538,-284c-419,-205 -746,-526 -989,-921c-96,-156 -172,-318 -231,-486c-94,363 -256,704 -518,990c-429,469 -979,701 -1617,701c-287,0 -570,-46 -837,-152l0,1682l-2518,0l0,-6762l2396,0l0,124c301,-152 629,-223 967,-223c695,0 1277,270 1683,835c203,282 342,590 430,913c124,-374 332,-714 637,-1007c567,-544 1312,-741 2085,-741c554,0 1162,69 1660,328c433,225 769,556 997,986c111,211 188,440 240,676l0,0zm17717,-1809l0,-82l608,0l0,-624l2502,-1272l0,1896l907,0l0,2047l-907,0l0,1099c0,19 0,45 1,72c101,-15 219,-52 299,-77l494,-157l217,2024l-369,81c-405,89 -821,144 -1237,144c-361,0 -790,-34 -1112,-208c-283,-152 -491,-387 -619,-680c-153,-348 -175,-831 -175,-1207l0,-1091l-608,0l0,-448l-292,663l-384,-160c-71,-30 -223,-89 -302,-89c-75,0 -113,20 -154,82c-166,246 -185,890 -185,1175l0,1861l-2510,0l0,-4773l-1059,4774l-2467,0l-724,-2579l-719,2580l-2464,0l-1510,-6762l2625,0l356,1872l522,-1872l2377,0l529,1887l361,-1887l2615,0l-361,1629l2317,0l0,30c195,-90 408,-129 627,-129c277,0 548,71 801,181l0,0z" fill="black" id="svg_3"/>
  <path d="m38566,687l0,1629l907,0l0,1207l-907,0l0,1519c0,182 18,303 53,363c54,91 150,137 286,137c122,0 293,-35 513,-105l122,1137c-409,90 -791,134 -1146,134c-412,0 -716,-52 -911,-157c-194,-105 -338,-265 -433,-478c-93,-214 -140,-561 -140,-1039l0,-1511l-608,0l0,-1207l608,0l0,-787l1656,-842l0,0l0,0zm-6090,1629l1551,0l0,700c150,-305 304,-514 462,-629c160,-114 355,-171 588,-171c246,0 513,76 803,227l-513,1167c-195,-81 -351,-121 -465,-121c-216,0 -386,90 -505,267c-171,251 -257,721 -257,1409l0,1442l-1665,0l0,-4291l1,0l0,0zm-8840,-1629l1748,0l628,3304l921,-3304l1734,0l928,3310l633,-3310l1740,0l-1314,5922l-1806,0l-1046,-3728l-1039,3728l-1803,0l-1324,-5922l0,0zm-5052,1629l1543,0l0,699c230,-287 462,-491 698,-613c236,-123 522,-185 860,-185c458,0 815,135 1074,407c258,270 387,689 387,1256l0,2729l-1665,0l0,-2362c0,-270 -50,-460 -150,-572c-100,-112 -240,-168 -420,-168c-198,0 -361,76 -484,226c-123,152 -186,422 -186,813l0,2062l-1656,0l0,-4292l-1,0l0,0zm-2439,1770c-32,-320 -119,-548 -259,-686c-140,-138 -323,-207 -552,-207c-264,0 -474,105 -633,313c-100,130 -164,323 -191,580l1635,0l0,0zm1682,786l-3321,0c31,263 101,460 217,590c159,186 369,279 627,279c164,0 319,-40 465,-120c90,-51 187,-141 290,-269l1631,149c-250,430 -551,740 -903,926c-352,188 -859,281 -1517,281c-573,0 -1022,-80 -1351,-241c-327,-160 -599,-415 -816,-764c-215,-350 -323,-761 -323,-1232c0,-671 216,-1216 649,-1630c431,-415 1029,-623 1791,-623c619,0 1106,94 1464,280c358,186 631,455 819,809c187,353 280,813 280,1380l0,185l-2,0l0,0zm-8677,-396c0,342 72,594 215,759c143,165 325,248 544,248c192,0 352,-78 483,-237c129,-158 194,-427 194,-806c0,-350 -68,-606 -202,-771c-136,-164 -300,-245 -495,-245c-211,0 -386,83 -527,248c-142,166 -212,433 -212,804l0,0zm-1661,3761l0,-5921l1551,0l0,633c214,-267 411,-448 590,-542c240,-127 508,-190 800,-190c577,0 1022,219 1339,659c315,440 473,984 473,1631c0,715 -172,1261 -516,1637c-344,377 -778,564 -1304,564c-255,0 -487,-43 -696,-128c-211,-87 -398,-214 -563,-383l0,2041l-1674,0l0,-1zm-5227,-4581c0,597 112,1027 336,1287c225,260 530,392 916,392c395,0 703,-128 920,-383c218,-256 326,-714 326,-1377c0,-557 -114,-963 -340,-1220c-227,-258 -534,-386 -922,-386c-372,0 -671,131 -896,392c-227,260 -340,692 -340,1295l0,0zm-1839,-4c0,-966 271,-1719 813,-2256c542,-539 1297,-808 2265,-808c992,0 1756,265 2293,793c537,529 805,1271 805,2223c0,692 -116,1259 -351,1701c-234,442 -574,787 -1017,1034c-444,247 -996,369 -1658,369c-671,0 -1228,-106 -1669,-318c-440,-214 -798,-550 -1071,-1010c-273,-460 -410,-1036 -410,-1728z" fill="white" id="svg_4"/>
 </g>
</svg>